<svg xmlns="http://www.w3.org/2000/svg" xmlns:xlink="http://www.w3.org/1999/xlink" width="200" zoomAndPan="magnify" viewBox="0 0 150 149.999998" height="200" preserveAspectRatio="xMidYMid meet" version="1.0"><defs><clipPath id="6074090068"><path d="M 8.183594 1 L 141 1 L 141 150 L 8.183594 150 Z M 8.183594 1 " clip-rule="nonzero"/></clipPath><clipPath id="46ee17ba72"><path d="M 8.183594 1 L 141 1 L 141 150 L 8.183594 150 Z M 8.183594 1 " clip-rule="nonzero"/></clipPath></defs><g clip-path="url(#6074090068)"><path fill="#ffd447" d="M 139.75 22.8125 C 138.894531 21.511719 137.550781 20.601562 135.910156 20.128906 C 135.386719 14.320312 132.835938 7.105469 128.304688 3.679688 C 124.402344 0.722656 119.519531 0.832031 114.1875 3.992188 C 114.101562 4.042969 114.023438 4.09375 113.941406 4.144531 C 113.925781 4.132812 113.914062 4.117188 113.898438 4.105469 C 112.757812 3.15625 111.3125 2.707031 109.839844 2.84375 C 108.363281 2.980469 107.027344 3.683594 106.078125 4.824219 C 105.128906 5.964844 104.679688 7.40625 104.816406 8.882812 C 104.921875 10.042969 105.382812 11.113281 106.125 11.980469 C 105.828125 12.792969 105.71875 13.53125 105.722656 14.179688 C 104.441406 14.019531 103.058594 13.980469 101.601562 14.140625 C 99.691406 12.414062 97.636719 10.824219 95.433594 9.398438 C 84.710938 2.457031 71.925781 0.113281 59.4375 2.789062 C 46.949219 5.464844 36.25 12.84375 29.3125 23.570312 C 25.910156 28.824219 23.621094 34.578125 22.476562 40.542969 L 22.015625 40.574219 C 21.136719 40.636719 20.472656 41.394531 20.53125 42.273438 C 20.585938 43.066406 21.210938 43.675781 21.976562 43.746094 C 21.347656 48.953125 21.570312 54.285156 22.703125 59.566406 C 23.035156 61.117188 23.441406 62.644531 23.917969 64.136719 C 23.007812 64.273438 22.105469 64.445312 21.222656 64.675781 C 18.972656 65.257812 16.960938 66.246094 15.148438 67.667969 C 14.144531 68.453125 13.269531 69.390625 12.484375 70.390625 C 11.519531 71.617188 10.625 72.832031 9.996094 74.261719 C 8.867188 76.816406 8.179688 79.570312 8.496094 82.382812 C 8.800781 85.117188 9.546875 87.550781 10.8125 90.003906 C 12.109375 92.519531 13.878906 94.828125 15.855469 96.910156 C 13.359375 100.316406 12.679688 104 14.460938 106.144531 C 15.382812 107.257812 16.820312 107.824219 18.566406 107.824219 C 18.78125 107.824219 19.007812 107.804688 19.230469 107.789062 C 19.289062 109.207031 20.082031 125.132812 26.503906 127.253906 C 27.714844 127.65625 28.8125 127.855469 29.789062 127.855469 C 30.796875 127.855469 31.671875 127.644531 32.417969 127.21875 C 33.539062 126.585938 34.046875 125.636719 34.253906 125.109375 C 35.527344 125.382812 39.644531 125.910156 41.730469 121.992188 C 42.542969 121.96875 45.070312 121.730469 46.953125 119.8125 C 48.472656 118.257812 49.179688 116.003906 49.046875 113.109375 C 49.40625 112.742188 50.308594 111.695312 50.347656 110.425781 C 50.367188 109.648438 50.0625 108.933594 49.441406 108.308594 C 48.714844 107.574219 48.152344 106.746094 47.773438 105.84375 C 47.050781 104.117188 43.105469 95.882812 33.707031 95.597656 C 33.710938 95.53125 33.71875 95.464844 33.71875 95.402344 C 33.800781 93.207031 32.90625 91.597656 32.113281 90.886719 C 30.542969 89.472656 27.042969 89.441406 23.417969 90.949219 C 22.578125 90.097656 21.777344 89.210938 21.027344 88.28125 C 20.125 87.050781 19.328125 85.75 18.691406 84.363281 C 18.402344 83.578125 18.175781 82.777344 18.023438 81.953125 C 17.980469 81.375 17.984375 80.800781 18.027344 80.222656 C 18.136719 79.6875 18.285156 79.160156 18.46875 78.644531 C 18.804688 77.949219 19.203125 77.289062 19.652344 76.65625 C 20.167969 76.039062 20.722656 75.449219 21.328125 74.921875 C 21.644531 74.714844 21.976562 74.53125 22.3125 74.363281 C 23.359375 73.976562 24.441406 73.714844 25.542969 73.535156 C 26.355469 73.449219 27.171875 73.402344 27.992188 73.382812 C 31.730469 79.902344 36.988281 85.492188 43.480469 89.691406 C 50.726562 94.378906 58.910156 96.964844 67.308594 97.328125 C 68.679688 102.457031 70.519531 107.449219 72.773438 112.261719 C 73.179688 113.128906 73.605469 113.980469 74.042969 114.828125 C 73.808594 114.84375 73.570312 114.847656 73.332031 114.859375 C 72.0625 111.515625 69.394531 109.199219 66.308594 109.199219 C 65.640625 109.199219 64.996094 109.320312 64.378906 109.523438 C 63.175781 109.1875 61.914062 109.035156 60.625 109.101562 C 57.496094 109.269531 54.71875 110.695312 52.753906 112.867188 C 50.320312 115.070312 46.65625 121.71875 49.148438 128.78125 C 49.78125 130.578125 49.667969 132.445312 49.554688 134.253906 C 49.441406 136.105469 49.335938 137.855469 49.964844 139.53125 C 52.503906 146.308594 61.984375 147.320312 67.40625 147.320312 C 72.269531 147.320312 75.507812 146.894531 77.6875 144.714844 C 78.917969 143.484375 79.125 141.664062 79.070312 140.300781 C 79.699219 139.003906 80.015625 137.34375 80.015625 135.261719 C 80.015625 133.015625 78.835938 130.507812 76.933594 128.714844 C 75.464844 127.332031 73.707031 126.5 71.890625 126.292969 C 72.328125 125.71875 72.707031 125.085938 73.023438 124.40625 C 75.144531 124.355469 77.253906 124.085938 79.351562 123.597656 C 80.300781 124.96875 81.289062 126.316406 82.320312 127.640625 C 84.230469 130.101562 86.289062 132.4375 88.472656 134.660156 C 88.464844 136.199219 88.851562 137.761719 89.617188 139.230469 C 90.410156 140.746094 91.535156 142.003906 92.78125 142.820312 C 93.695312 144.9375 95.597656 147.28125 99.515625 148.804688 C 100.324219 149.121094 101.148438 149.359375 101.960938 149.53125 C 102.613281 149.734375 103.246094 149.882812 103.695312 149.882812 C 103.941406 149.882812 104.183594 149.871094 104.417969 149.847656 C 104.597656 149.855469 104.777344 149.863281 104.953125 149.863281 C 105.886719 149.863281 106.753906 149.753906 107.539062 149.550781 C 108.566406 149.386719 109.566406 149.082031 110.132812 148.515625 C 111.609375 147.039062 113.867188 143.511719 116.207031 135.125 C 116.800781 133.007812 118.101562 130.542969 119.253906 128.371094 C 119.972656 127.011719 120.652344 125.726562 121.050781 124.722656 C 122.359375 121.40625 121.816406 117.058594 119.863281 115.234375 C 119.714844 115.097656 119.554688 114.972656 119.394531 114.851562 C 119.15625 114.425781 118.878906 114.042969 118.554688 113.742188 C 118.304688 113.507812 118.03125 113.304688 117.742188 113.121094 C 117.496094 112.878906 117.230469 112.640625 116.933594 112.410156 L 116.878906 112.371094 C 114.789062 110.769531 112.304688 109.921875 109.6875 109.921875 C 104.332031 109.921875 98.648438 114.738281 98.546875 123.667969 C 98.527344 123.71875 98.519531 123.773438 98.523438 123.835938 C 98.523438 123.847656 98.53125 123.90625 98.546875 124.003906 C 98.550781 124.128906 98.558594 124.253906 98.570312 124.386719 C 98.582031 124.488281 98.589844 124.59375 98.59375 124.695312 C 97 124.492188 95.191406 124.953125 93.480469 126.039062 C 93.476562 126.042969 93.472656 126.042969 93.472656 126.046875 C 92.070312 124.527344 90.722656 122.953125 89.441406 121.328125 C 89.109375 120.886719 88.773438 120.445312 88.449219 119.996094 C 89.421875 119.425781 90.363281 118.808594 91.253906 118.136719 C 94.554688 115.640625 97.558594 112.652344 99.402344 108.890625 C 100.277344 107.117188 101.003906 105.242188 101.308594 103.28125 C 101.6875 100.824219 101.6875 98.601562 101.234375 96.140625 C 100.703125 93.257812 99.402344 90.554688 97.679688 88.140625 C 105.890625 82.121094 111.96875 73.613281 115.035156 63.972656 C 116.488281 64.34375 118.019531 64.574219 119.613281 64.574219 C 119.882812 64.574219 120.15625 64.566406 120.429688 64.550781 C 125.578125 64.300781 130.113281 61.789062 133.910156 57.089844 C 139.527344 50.132812 139.269531 41.632812 137.144531 34.195312 C 140.617188 30.578125 141.824219 25.957031 139.75 22.8125 Z M 86.195312 110.03125 C 85.273438 110.710938 84.3125 111.332031 83.3125 111.894531 C 82.105469 109.699219 81.003906 107.449219 80.007812 105.144531 C 78.882812 102.398438 77.90625 99.597656 77.078125 96.75 C 77.878906 96.621094 78.679688 96.472656 79.480469 96.300781 C 82.96875 95.554688 86.28125 94.4375 89.398438 93.007812 C 89.425781 93.042969 89.453125 93.074219 89.480469 93.105469 C 90.179688 94.078125 90.796875 95.105469 91.308594 96.191406 C 91.617188 97.023438 91.851562 97.871094 92.011719 98.742188 C 92.078125 99.535156 92.078125 100.328125 92.011719 101.121094 C 91.851562 102.007812 91.609375 102.875 91.296875 103.722656 C 90.804688 104.773438 90.210938 105.769531 89.535156 106.710938 C 88.539062 107.929688 87.414062 109.035156 86.195312 110.03125 Z M 127.296875 51.75 C 125.066406 54.511719 122.695312 55.921875 120.046875 56.058594 C 118.988281 56.117188 117.917969 55.953125 116.882812 55.664062 C 117.5625 50.453125 117.386719 45.039062 116.234375 39.613281 C 116.808594 38.125 117.222656 36.5 117.464844 34.730469 C 117.480469 34.625 117.492188 34.515625 117.503906 34.40625 C 117.78125 35.453125 118.234375 36.285156 118.691406 36.820312 C 119.960938 38.316406 122.546875 39.1875 125.523438 39.1875 C 126.804688 39.1875 128.160156 39.015625 129.511719 38.667969 C 130.667969 44.097656 129.933594 48.484375 127.296875 51.75 Z M 127.296875 51.75 " fill-opacity="1" fill-rule="nonzero"/></g><path fill="#fd5d5b" d="M 71.246094 127.042969 C 71.195312 127.097656 71.148438 127.160156 71.09375 127.214844 L 71.023438 127.285156 L 70.582031 127.417969 C 70.214844 127.523438 69.605469 127.703125 68.925781 127.910156 C 68.785156 127.953125 68.644531 127.996094 68.5 128.039062 C 68.359375 128.082031 68.21875 128.128906 68.078125 128.171875 C 67.964844 128.207031 67.851562 128.242188 67.738281 128.277344 C 67.207031 128.449219 66.691406 128.617188 66.265625 128.769531 C 65.945312 129.046875 65.585938 129.382812 65.199219 129.769531 C 64.898438 130.070312 64.578125 130.398438 64.234375 130.777344 C 64.085938 130.9375 63.835938 130.949219 63.671875 130.800781 C 63.511719 130.652344 63.5 130.398438 63.648438 130.238281 C 64.039062 129.808594 64.402344 129.433594 64.746094 129.097656 C 61.101562 128.152344 58.488281 124.089844 58.488281 119.261719 C 58.488281 118.863281 58.511719 118.472656 58.546875 118.085938 C 58.5625 117.910156 58.585938 117.742188 58.609375 117.570312 C 58.628906 117.402344 58.652344 117.234375 58.679688 117.066406 C 59.226562 113.921875 60.921875 111.328125 63.167969 110.054688 C 62.542969 109.945312 61.90625 109.882812 61.261719 109.882812 C 61.0625 109.882812 60.867188 109.886719 60.667969 109.898438 C 58.277344 110.027344 56.082031 110.988281 54.347656 112.480469 C 54.246094 112.570312 54.152344 112.660156 54.054688 112.75 C 53.894531 112.902344 53.734375 113.046875 53.582031 113.207031 C 51.742188 115.125 50.589844 117.710938 50.570312 120.492188 C 50.5625 121.96875 50.96875 123.789062 51.394531 125.714844 C 52.027344 128.5625 52.746094 131.789062 52.25 134.640625 C 51.984375 136.164062 52.402344 137.597656 53.5 138.902344 C 55.765625 141.601562 60.613281 143.34375 65.84375 143.34375 C 66.378906 143.34375 66.910156 143.347656 67.429688 143.351562 C 71.667969 143.378906 75.328125 143.40625 77.355469 141.390625 C 77.710938 141.039062 78.007812 140.617188 78.257812 140.140625 C 78.382812 139.910156 78.492188 139.664062 78.589844 139.40625 C 78.6875 139.140625 78.773438 138.863281 78.851562 138.570312 C 79.09375 137.628906 79.21875 136.535156 79.21875 135.261719 C 79.21875 133.226562 78.132812 130.941406 76.386719 129.296875 C 74.90625 127.898438 73.105469 127.117188 71.246094 127.042969 Z M 75.089844 140.675781 C 74.839844 140.675781 74.636719 140.46875 74.636719 140.21875 C 74.636719 139.964844 74.839844 139.761719 75.089844 139.761719 C 75.34375 139.761719 75.546875 139.964844 75.546875 140.21875 C 75.546875 140.46875 75.34375 140.675781 75.089844 140.675781 Z M 77.003906 136.460938 C 76.976562 136.660156 76.945312 136.824219 76.921875 136.949219 C 76.882812 137.113281 76.855469 137.210938 76.855469 137.21875 C 76.835938 137.277344 76.804688 137.324219 76.765625 137.367188 C 76.691406 137.449219 76.585938 137.5 76.472656 137.5 C 76.4375 137.5 76.398438 137.492188 76.359375 137.480469 C 76.148438 137.417969 76.027344 137.195312 76.09375 136.984375 C 76.097656 136.964844 76.125 136.867188 76.15625 136.722656 C 76.183594 136.597656 76.214844 136.433594 76.242188 136.234375 C 76.265625 136.078125 76.28125 135.894531 76.289062 135.703125 C 76.367188 134.304688 76.058594 132.058594 73.703125 130.476562 C 73.519531 130.351562 73.472656 130.105469 73.597656 129.921875 C 73.71875 129.742188 73.964844 129.691406 74.148438 129.816406 C 77.226562 131.886719 77.207031 135.027344 77.003906 136.460938 Z M 115.105469 112.15625 C 114.320312 112.054688 113.488281 112.085938 112.644531 112.253906 C 109.878906 112.804688 107.53125 114.667969 106.367188 117.242188 C 104.71875 120.878906 104.769531 123.53125 104.8125 125.871094 C 104.855469 128.039062 104.890625 129.910156 103.496094 132.074219 C 103.269531 132.425781 103.050781 132.773438 102.84375 133.113281 C 102.644531 133.441406 102.453125 133.761719 102.265625 134.078125 C 101.996094 134.546875 101.746094 134.996094 101.507812 135.4375 C 100.421875 137.457031 99.6875 139.210938 99.207031 140.71875 C 99.089844 141.078125 98.992188 141.425781 98.902344 141.761719 C 98.832031 142.027344 98.773438 142.28125 98.71875 142.527344 C 98.164062 145.066406 98.390625 146.691406 98.636719 147.542969 C 97.148438 146.804688 95.210938 145.519531 93.976562 143.445312 C 93.871094 143.265625 93.773438 143.074219 93.675781 142.878906 C 93.582031 142.6875 93.492188 142.484375 93.410156 142.277344 C 93.019531 141.308594 92.773438 140.207031 92.773438 138.941406 C 92.773438 138.136719 92.824219 137.378906 92.902344 136.652344 C 93.292969 133.082031 94.558594 130.484375 95.964844 128.660156 C 96.460938 128.019531 96.972656 127.472656 97.46875 127.011719 C 97.519531 126.960938 97.570312 126.914062 97.625 126.867188 C 98.101562 126.433594 98.558594 126.078125 98.96875 125.792969 C 98.972656 125.789062 98.976562 125.785156 98.980469 125.78125 C 99.230469 126.582031 99.613281 127.605469 100.195312 128.832031 C 100.265625 128.972656 100.40625 129.058594 100.558594 129.058594 C 100.613281 129.058594 100.671875 129.042969 100.726562 129.019531 C 100.925781 128.921875 101.011719 128.683594 100.914062 128.488281 C 100.433594 127.472656 100.09375 126.605469 99.855469 125.890625 C 99.796875 125.714844 99.742188 125.542969 99.695312 125.382812 C 99.640625 125.207031 99.597656 125.046875 99.558594 124.898438 C 99.429688 124.417969 99.367188 124.078125 99.335938 123.902344 C 99.339844 115.339844 104.671875 110.71875 109.6875 110.71875 C 111.609375 110.71875 113.457031 111.21875 115.105469 112.15625 Z M 115.105469 112.15625 " fill-opacity="1" fill-rule="nonzero"/><g clip-path="url(#46ee17ba72)"><path fill="#40246d" d="M 139.75 22.8125 C 138.894531 21.511719 137.550781 20.601562 135.910156 20.128906 C 135.386719 14.320312 132.835938 7.105469 128.304688 3.679688 C 124.402344 0.722656 119.519531 0.832031 114.1875 3.992188 C 114.101562 4.042969 114.023438 4.09375 113.941406 4.144531 C 113.925781 4.132812 113.914062 4.117188 113.898438 4.105469 C 112.757812 3.15625 111.3125 2.707031 109.839844 2.84375 C 108.363281 2.980469 107.027344 3.683594 106.078125 4.824219 C 105.128906 5.964844 104.679688 7.40625 104.816406 8.882812 C 104.921875 10.042969 105.382812 11.113281 106.125 11.980469 C 105.828125 12.792969 105.71875 13.53125 105.722656 14.179688 C 104.441406 14.019531 103.058594 13.980469 101.601562 14.140625 C 99.691406 12.414062 97.636719 10.824219 95.433594 9.398438 C 84.710938 2.457031 71.925781 0.113281 59.4375 2.789062 C 46.949219 5.464844 36.25 12.84375 29.3125 23.570312 C 25.910156 28.824219 23.621094 34.578125 22.476562 40.542969 L 22.015625 40.574219 C 21.136719 40.636719 20.472656 41.394531 20.53125 42.273438 C 20.585938 43.066406 21.210938 43.675781 21.976562 43.746094 C 21.347656 48.953125 21.570312 54.285156 22.703125 59.566406 C 23.035156 61.117188 23.441406 62.644531 23.917969 64.136719 C 23.007812 64.273438 22.105469 64.445312 21.222656 64.675781 C 18.972656 65.257812 16.960938 66.25 15.148438 67.667969 C 14.144531 68.453125 13.269531 69.390625 12.484375 70.390625 C 11.519531 71.617188 10.625 72.832031 9.996094 74.261719 C 8.867188 76.816406 8.179688 79.570312 8.496094 82.382812 C 8.800781 85.117188 9.546875 87.550781 10.8125 90.003906 C 12.109375 92.519531 13.878906 94.828125 15.855469 96.910156 C 13.359375 100.316406 12.679688 104 14.460938 106.144531 C 15.382812 107.257812 16.820312 107.824219 18.566406 107.824219 C 18.78125 107.824219 19.007812 107.804688 19.230469 107.789062 C 19.289062 109.207031 20.082031 125.132812 26.503906 127.253906 C 27.714844 127.65625 28.8125 127.855469 29.789062 127.855469 C 30.796875 127.855469 31.671875 127.644531 32.417969 127.21875 C 33.539062 126.585938 34.046875 125.636719 34.253906 125.109375 C 35.527344 125.382812 39.644531 125.910156 41.730469 121.992188 C 42.542969 121.96875 45.070312 121.730469 46.953125 119.8125 C 48.472656 118.257812 49.179688 116.003906 49.046875 113.109375 C 49.40625 112.742188 50.308594 111.695312 50.347656 110.425781 C 50.367188 109.648438 50.0625 108.933594 49.441406 108.308594 C 48.714844 107.574219 48.152344 106.746094 47.773438 105.84375 C 47.050781 104.117188 43.105469 95.882812 33.707031 95.597656 C 33.710938 95.53125 33.71875 95.464844 33.71875 95.402344 C 33.800781 93.207031 32.90625 91.597656 32.113281 90.886719 C 30.542969 89.472656 27.042969 89.441406 23.417969 90.949219 C 22.578125 90.097656 21.777344 89.210938 21.027344 88.28125 C 20.125 87.050781 19.328125 85.75 18.691406 84.363281 C 18.402344 83.578125 18.175781 82.777344 18.023438 81.953125 C 17.980469 81.375 17.984375 80.800781 18.027344 80.222656 C 18.136719 79.6875 18.285156 79.160156 18.46875 78.644531 C 18.804688 77.949219 19.203125 77.289062 19.652344 76.65625 C 20.167969 76.039062 20.722656 75.449219 21.328125 74.921875 C 21.644531 74.714844 21.976562 74.53125 22.3125 74.363281 C 23.359375 73.976562 24.441406 73.714844 25.542969 73.535156 C 26.355469 73.449219 27.171875 73.402344 27.992188 73.382812 C 31.730469 79.902344 36.988281 85.492188 43.480469 89.691406 C 50.726562 94.378906 58.910156 96.964844 67.308594 97.328125 C 68.679688 102.457031 70.519531 107.449219 72.773438 112.261719 C 73.179688 113.128906 73.605469 113.980469 74.042969 114.828125 C 73.808594 114.84375 73.570312 114.847656 73.332031 114.859375 C 72.0625 111.515625 69.394531 109.199219 66.308594 109.199219 C 65.640625 109.199219 64.996094 109.320312 64.378906 109.523438 C 63.175781 109.1875 61.914062 109.035156 60.625 109.101562 C 57.496094 109.269531 54.71875 110.695312 52.753906 112.867188 C 50.320312 115.070312 46.65625 121.71875 49.148438 128.78125 C 49.78125 130.578125 49.667969 132.445312 49.554688 134.253906 C 49.441406 136.105469 49.335938 137.855469 49.964844 139.53125 C 52.503906 146.308594 61.984375 147.320312 67.40625 147.320312 C 72.269531 147.320312 75.507812 146.894531 77.6875 144.714844 C 78.917969 143.484375 79.125 141.664062 79.070312 140.300781 C 79.699219 139.003906 80.015625 137.34375 80.015625 135.261719 C 80.015625 133.015625 78.835938 130.507812 76.933594 128.714844 C 75.464844 127.332031 73.707031 126.5 71.890625 126.292969 C 72.328125 125.71875 72.707031 125.085938 73.023438 124.40625 C 75.144531 124.355469 77.253906 124.085938 79.351562 123.597656 C 80.300781 124.96875 81.289062 126.316406 82.320312 127.640625 C 84.230469 130.101562 86.289062 132.4375 88.472656 134.660156 C 88.464844 136.199219 88.851562 137.761719 89.617188 139.230469 C 90.410156 140.746094 91.535156 142.003906 92.78125 142.820312 C 93.695312 144.9375 95.597656 147.28125 99.515625 148.804688 C 100.324219 149.121094 101.148438 149.359375 101.960938 149.53125 C 102.613281 149.734375 103.246094 149.882812 103.695312 149.882812 C 103.941406 149.882812 104.183594 149.871094 104.417969 149.847656 C 104.597656 149.855469 104.777344 149.863281 104.953125 149.863281 C 105.886719 149.863281 106.753906 149.753906 107.539062 149.550781 C 108.566406 149.386719 109.566406 149.082031 110.132812 148.515625 C 111.609375 147.039062 113.867188 143.511719 116.207031 135.125 C 116.800781 133.007812 118.101562 130.542969 119.253906 128.371094 C 119.972656 127.011719 120.652344 125.726562 121.050781 124.722656 C 122.359375 121.40625 121.816406 117.058594 119.863281 115.234375 C 119.714844 115.097656 119.554688 114.972656 119.394531 114.851562 C 119.15625 114.425781 118.878906 114.042969 118.554688 113.742188 C 118.304688 113.507812 118.03125 113.304688 117.742188 113.121094 C 117.496094 112.878906 117.230469 112.640625 116.933594 112.410156 L 116.878906 112.371094 C 114.789062 110.769531 112.304688 109.921875 109.6875 109.921875 C 104.332031 109.921875 98.648438 114.738281 98.546875 123.667969 C 98.527344 123.71875 98.519531 123.773438 98.523438 123.835938 C 98.523438 123.847656 98.53125 123.90625 98.546875 124.003906 C 98.550781 124.128906 98.558594 124.253906 98.570312 124.386719 C 98.582031 124.488281 98.589844 124.59375 98.59375 124.695312 C 97 124.492188 95.191406 124.953125 93.480469 126.039062 C 93.476562 126.042969 93.472656 126.042969 93.472656 126.046875 C 92.070312 124.527344 90.722656 122.953125 89.441406 121.328125 C 89.109375 120.886719 88.773438 120.445312 88.449219 119.996094 C 89.421875 119.425781 90.363281 118.808594 91.253906 118.136719 C 94.554688 115.640625 97.558594 112.652344 99.402344 108.890625 C 100.277344 107.117188 101.003906 105.242188 101.308594 103.28125 C 101.6875 100.824219 101.6875 98.601562 101.234375 96.140625 C 100.703125 93.257812 99.402344 90.554688 97.679688 88.140625 C 105.890625 82.121094 111.96875 73.613281 115.035156 63.972656 C 116.488281 64.34375 118.019531 64.574219 119.613281 64.574219 C 119.882812 64.574219 120.15625 64.566406 120.429688 64.550781 C 125.578125 64.300781 130.113281 61.789062 133.910156 57.089844 C 139.527344 50.132812 139.269531 41.632812 137.144531 34.195312 C 140.617188 30.578125 141.824219 25.957031 139.75 22.8125 Z M 18.925781 99.839844 C 19.898438 100.679688 20.988281 101.238281 22.308594 101.238281 C 23.480469 101.238281 24.882812 100.71875 25.6875 99.839844 C 26.523438 98.929688 27.144531 97.730469 27.089844 96.457031 C 27.035156 95.246094 26.640625 93.902344 25.6875 93.078125 C 25.121094 92.585938 24.574219 92.078125 24.039062 91.558594 C 27.238281 90.300781 30.269531 90.296875 31.582031 91.480469 C 32.246094 92.074219 32.996094 93.453125 32.921875 95.371094 C 32.921875 95.441406 32.914062 95.519531 32.910156 95.589844 C 32.898438 95.71875 32.886719 95.851562 32.871094 95.988281 C 32.851562 96.121094 32.832031 96.253906 32.808594 96.390625 C 32.441406 98.414062 31.101562 101.160156 27.238281 104.148438 C 27.089844 104.261719 27.050781 104.453125 27.121094 104.617188 C 27.132812 104.648438 27.144531 104.679688 27.164062 104.707031 C 27.300781 104.882812 27.550781 104.914062 27.722656 104.777344 C 31.027344 102.226562 32.582031 99.808594 33.257812 97.820312 C 33.929688 97.363281 34.910156 96.785156 35.546875 96.566406 C 43.117188 97.773438 46.402344 104.628906 47.039062 106.152344 C 47.460938 107.152344 48.078125 108.0625 48.875 108.867188 C 49.34375 109.339844 49.5625 109.84375 49.550781 110.402344 C 49.519531 111.585938 48.417969 112.613281 48.378906 112.648438 C 48.371094 112.652344 48.359375 112.65625 48.347656 112.664062 C 48.285156 112.710938 48.226562 112.75 48.164062 112.792969 C 46.484375 114.039062 45.058594 114.441406 43.921875 113.980469 C 42.191406 113.28125 41.503906 110.773438 41.304688 109.832031 C 41.257812 109.613281 41.234375 109.476562 41.234375 109.46875 C 41.214844 109.324219 41.117188 109.203125 40.980469 109.152344 L 39.261719 108.515625 C 39.054688 108.4375 38.824219 108.542969 38.75 108.75 C 38.671875 108.957031 38.777344 109.1875 38.984375 109.261719 L 40.488281 109.820312 C 40.652344 110.695312 41.367188 113.671875 43.476562 114.652344 C 43.503906 114.714844 43.542969 114.777344 43.605469 114.824219 C 43.628906 114.835938 45.667969 116.316406 45.949219 118.042969 C 45.980469 118.238281 46.148438 118.378906 46.339844 118.378906 C 46.363281 118.378906 46.382812 118.375 46.40625 118.371094 C 46.621094 118.335938 46.769531 118.132812 46.734375 117.914062 C 46.539062 116.699219 45.675781 115.640625 44.984375 114.960938 C 45.976562 114.9375 47.070312 114.523438 48.257812 113.710938 C 48.269531 116.09375 47.644531 117.960938 46.386719 119.246094 C 44.535156 121.144531 41.871094 121.203125 41.535156 121.199219 C 41.230469 121.128906 37.921875 120.324219 37.1875 118 C 37.121094 117.789062 36.894531 117.671875 36.6875 117.738281 C 36.476562 117.804688 36.359375 118.03125 36.425781 118.238281 C 37.152344 120.53125 39.773438 121.523438 40.894531 121.851562 C 38.683594 125.621094 34.300781 124.3125 34.109375 124.253906 C 34.097656 124.25 34.089844 124.25 34.078125 124.25 C 33.714844 124.082031 30.558594 122.5625 30.429688 120.125 C 30.417969 119.90625 30.226562 119.730469 30.007812 119.75 C 29.789062 119.761719 29.621094 119.949219 29.632812 120.167969 C 29.773438 122.769531 32.554688 124.378906 33.492188 124.851562 C 33.324219 125.269531 32.910156 126.03125 32.011719 126.535156 C 30.746094 127.246094 28.976562 127.230469 26.753906 126.496094 C 20.75 124.515625 20.042969 108.144531 20.023438 107.691406 C 20.835938 107.5625 21.691406 107.339844 22.582031 107 C 22.785156 106.917969 22.890625 106.6875 22.808594 106.484375 C 22.808594 106.480469 22.804688 106.476562 22.800781 106.46875 C 22.71875 106.273438 22.496094 106.175781 22.296875 106.253906 C 21.722656 106.476562 21.160156 106.644531 20.617188 106.769531 C 18.191406 107.324219 16.148438 106.929688 15.074219 105.636719 C 13.535156 103.789062 14.1875 100.558594 16.414062 97.488281 C 17.226562 98.308594 18.066406 99.097656 18.925781 99.839844 Z M 77.125 144.152344 C 75.140625 146.136719 72.058594 146.523438 67.40625 146.523438 C 62.191406 146.523438 53.082031 145.578125 50.710938 139.25 C 50.140625 137.734375 50.242188 136.066406 50.351562 134.300781 C 50.464844 132.414062 50.585938 130.464844 49.898438 128.515625 C 49.152344 126.394531 48.996094 124.316406 49.203125 122.398438 L 49.929688 122.425781 C 50.089844 123.507812 50.347656 124.679688 50.617188 125.886719 C 51.234375 128.660156 51.933594 131.804688 51.464844 134.503906 C 51.160156 136.246094 51.652344 137.945312 52.890625 139.414062 C 55.300781 142.285156 60.386719 144.140625 65.84375 144.140625 C 66.378906 144.140625 66.90625 144.144531 67.421875 144.148438 C 67.921875 144.152344 68.414062 144.15625 68.894531 144.15625 C 72.679688 144.15625 75.910156 143.949219 77.917969 141.953125 C 78.027344 141.847656 78.121094 141.726562 78.222656 141.609375 C 78.113281 142.519531 77.8125 143.460938 77.125 144.152344 Z M 76.386719 129.296875 C 78.132812 130.941406 79.21875 133.226562 79.21875 135.261719 C 79.21875 136.535156 79.09375 137.628906 78.851562 138.570312 C 78.773438 138.863281 78.6875 139.140625 78.589844 139.40625 C 78.492188 139.664062 78.382812 139.910156 78.257812 140.140625 C 78.007812 140.617188 77.710938 141.039062 77.355469 141.390625 C 75.328125 143.40625 71.667969 143.378906 67.429688 143.351562 C 66.910156 143.347656 66.378906 143.34375 65.84375 143.34375 C 60.613281 143.34375 55.765625 141.601562 53.5 138.902344 C 52.402344 137.597656 51.984375 136.164062 52.25 134.640625 C 52.746094 131.789062 52.027344 128.5625 51.394531 125.714844 C 50.96875 123.789062 50.5625 121.96875 50.570312 120.492188 C 50.589844 117.710938 51.742188 115.125 53.582031 113.207031 C 53.734375 113.046875 53.894531 112.902344 54.054688 112.75 C 54.152344 112.660156 54.246094 112.570312 54.347656 112.480469 C 56.082031 110.988281 58.277344 110.027344 60.667969 109.898438 C 60.867188 109.886719 61.0625 109.882812 61.261719 109.882812 C 61.90625 109.882812 62.542969 109.945312 63.167969 110.054688 C 60.921875 111.328125 59.226562 113.921875 58.679688 117.066406 C 58.652344 117.234375 58.628906 117.402344 58.609375 117.570312 C 58.585938 117.742188 58.5625 117.910156 58.546875 118.085938 C 58.511719 118.472656 58.488281 118.863281 58.488281 119.261719 C 58.488281 124.089844 61.101562 128.152344 64.746094 129.097656 C 64.402344 129.433594 64.039062 129.808594 63.648438 130.238281 C 63.5 130.398438 63.511719 130.652344 63.671875 130.800781 C 63.835938 130.949219 64.085938 130.9375 64.234375 130.777344 C 64.578125 130.398438 64.898438 130.070312 65.199219 129.769531 C 65.585938 129.382812 65.945312 129.046875 66.265625 128.769531 C 66.691406 128.617188 67.207031 128.449219 67.738281 128.277344 C 67.851562 128.242188 67.964844 128.207031 68.078125 128.171875 C 68.21875 128.128906 68.359375 128.082031 68.5 128.039062 C 68.644531 127.996094 68.785156 127.953125 68.925781 127.910156 C 69.605469 127.703125 70.214844 127.523438 70.582031 127.417969 L 71.023438 127.285156 L 71.09375 127.214844 C 71.148438 127.160156 71.195312 127.097656 71.246094 127.042969 C 73.105469 127.117188 74.90625 127.898438 76.386719 129.296875 Z M 67.222656 112.753906 C 67.183594 112.761719 63.363281 113.296875 63.230469 118.945312 C 63.132812 123.164062 67.261719 124.921875 67.304688 124.9375 C 67.355469 124.960938 67.40625 124.96875 67.457031 124.96875 C 67.613281 124.96875 67.761719 124.875 67.824219 124.722656 C 67.910156 124.519531 67.8125 124.289062 67.609375 124.203125 C 67.582031 124.191406 67.445312 124.132812 67.242188 124.023438 C 68.570312 124.230469 69.898438 124.351562 71.222656 124.394531 C 71.363281 124.398438 71.503906 124.410156 71.644531 124.410156 C 71.785156 124.414062 71.925781 124.417969 72.0625 124.417969 C 72.085938 124.417969 72.109375 124.417969 72.132812 124.417969 C 72.066406 124.550781 71.992188 124.675781 71.921875 124.804688 C 71.546875 125.457031 71.109375 126.058594 70.601562 126.578125 L 70.546875 126.59375 L 70.378906 126.644531 L 70.355469 126.652344 C 69.691406 126.847656 68.988281 127.054688 68.316406 127.261719 C 68.171875 127.308594 68.03125 127.351562 67.890625 127.394531 C 67.75 127.4375 67.605469 127.484375 67.46875 127.527344 C 67.324219 127.574219 67.183594 127.617188 67.046875 127.664062 C 66.605469 127.808594 66.203125 127.945312 65.863281 128.070312 C 65.550781 128.183594 65.292969 128.289062 65.113281 128.375 C 61.78125 127.617188 59.285156 123.730469 59.285156 119.261719 C 59.285156 119.132812 59.296875 119.007812 59.300781 118.882812 C 59.304688 118.695312 59.308594 118.507812 59.320312 118.324219 C 59.335938 118.148438 59.359375 117.980469 59.378906 117.808594 C 59.8125 114.226562 61.796875 111.328125 64.402344 110.355469 C 64.613281 110.273438 64.832031 110.207031 65.054688 110.152344 C 65.296875 110.09375 65.546875 110.054688 65.800781 110.03125 C 65.96875 110.015625 66.136719 109.996094 66.308594 109.996094 C 68.988281 109.996094 71.316406 111.984375 72.503906 114.894531 C 72.078125 114.902344 71.652344 114.890625 71.226562 114.875 C 71.070312 114.867188 70.914062 114.871094 70.753906 114.863281 C 70.589844 114.851562 70.421875 114.835938 70.257812 114.824219 C 69.949219 114.800781 69.640625 114.773438 69.332031 114.738281 C 68.0625 114.535156 66.890625 114.554688 65.730469 115.230469 C 65.28125 115.496094 64.84375 115.875 64.472656 116.316406 C 65.351562 113.855469 67.222656 113.558594 67.324219 113.546875 C 67.539062 113.519531 67.695312 113.320312 67.667969 113.101562 C 67.640625 112.882812 67.445312 112.726562 67.222656 112.753906 Z M 118.273438 115.054688 C 118.445312 115.152344 118.613281 115.261719 118.773438 115.375 C 118.835938 115.421875 118.898438 115.464844 118.960938 115.515625 C 119.082031 115.609375 119.203125 115.710938 119.316406 115.816406 C 119.375 115.871094 119.429688 115.9375 119.484375 115.996094 C 119.53125 116.046875 119.582031 116.09375 119.625 116.148438 C 119.859375 116.433594 120.058594 116.769531 120.230469 117.140625 C 121.144531 119.085938 121.238281 122.074219 120.308594 124.429688 C 119.925781 125.390625 119.257812 126.65625 118.550781 127.996094 C 117.378906 130.207031 116.054688 132.710938 115.441406 134.910156 C 113.882812 140.480469 112.390625 143.839844 111.148438 145.867188 C 110.929688 146.222656 110.71875 146.535156 110.519531 146.816406 C 110.175781 147.292969 109.855469 147.667969 109.570312 147.953125 C 109.304688 148.21875 108.773438 148.511719 107.722656 148.707031 C 107.636719 148.726562 107.546875 148.742188 107.453125 148.753906 C 107.210938 148.792969 106.9375 148.828125 106.636719 148.859375 C 106.199219 148.898438 105.699219 148.925781 105.128906 148.9375 C 104.898438 148.941406 104.664062 148.945312 104.410156 148.945312 L 104.261719 148.945312 C 102.875 148.945312 101.980469 148.582031 101.53125 147.839844 C 100.089844 145.449219 103.265625 139.40625 105.816406 134.550781 C 106.179688 133.855469 106.539062 133.171875 106.875 132.519531 C 108.328125 129.695312 108.277344 127.632812 108.222656 125.445312 C 108.179688 123.515625 108.128906 121.515625 109.148438 118.773438 C 109.976562 116.542969 111.710938 114.964844 113.910156 114.449219 C 114.386719 114.335938 114.871094 114.277344 115.347656 114.277344 C 116.386719 114.277344 117.394531 114.550781 118.273438 115.054688 Z M 117.261719 113.757812 C 117.269531 113.761719 117.277344 113.769531 117.289062 113.773438 C 117.285156 113.773438 117.277344 113.769531 117.273438 113.769531 C 116.148438 113.4375 114.929688 113.386719 113.726562 113.671875 C 111.261719 114.253906 109.324219 116.011719 108.402344 118.496094 C 107.328125 121.382812 107.378906 123.457031 107.429688 125.464844 C 107.476562 127.546875 107.523438 129.511719 106.164062 132.15625 C 105.832031 132.808594 105.472656 133.484375 105.109375 134.179688 C 102.328125 139.472656 99.175781 145.476562 100.851562 148.25 C 100.863281 148.273438 100.882812 148.289062 100.894531 148.3125 C 100.367188 148.109375 99.886719 147.90625 99.5625 147.761719 C 99.359375 147.292969 98.644531 145.171875 99.972656 140.972656 C 100.441406 139.496094 101.160156 137.761719 102.242188 135.753906 C 102.789062 134.742188 103.421875 133.660156 104.167969 132.503906 C 105.691406 130.140625 105.652344 128.058594 105.609375 125.855469 C 105.566406 123.601562 105.519531 121.042969 107.09375 117.570312 C 108.136719 115.265625 110.324219 113.527344 112.796875 113.035156 C 114.453125 112.707031 116.027344 112.972656 117.261719 113.757812 Z M 97.46875 127.011719 C 97.519531 126.960938 97.570312 126.914062 97.625 126.867188 C 98.101562 126.433594 98.558594 126.078125 98.96875 125.792969 C 98.972656 125.789062 98.976562 125.785156 98.980469 125.78125 C 99.230469 126.582031 99.613281 127.605469 100.195312 128.832031 C 100.265625 128.972656 100.40625 129.058594 100.558594 129.058594 C 100.613281 129.058594 100.671875 129.042969 100.726562 129.019531 C 100.925781 128.921875 101.011719 128.683594 100.914062 128.488281 C 100.433594 127.472656 100.09375 126.605469 99.855469 125.890625 C 99.796875 125.714844 99.742188 125.542969 99.695312 125.382812 C 99.640625 125.207031 99.597656 125.046875 99.558594 124.898438 C 99.429688 124.417969 99.367188 124.078125 99.335938 123.902344 C 99.339844 115.339844 104.671875 110.71875 109.6875 110.71875 C 111.609375 110.71875 113.457031 111.21875 115.105469 112.15625 C 114.320312 112.054688 113.488281 112.085938 112.644531 112.253906 C 109.878906 112.804688 107.53125 114.667969 106.367188 117.242188 C 104.71875 120.878906 104.769531 123.53125 104.8125 125.871094 C 104.855469 128.039062 104.890625 129.910156 103.496094 132.074219 C 103.269531 132.425781 103.050781 132.773438 102.84375 133.113281 C 102.644531 133.441406 102.453125 133.761719 102.265625 134.078125 C 101.996094 134.546875 101.746094 134.996094 101.507812 135.4375 C 100.421875 137.457031 99.6875 139.210938 99.207031 140.71875 C 99.089844 141.078125 98.992188 141.425781 98.902344 141.761719 C 98.832031 142.027344 98.773438 142.28125 98.71875 142.527344 C 98.164062 145.066406 98.390625 146.691406 98.636719 147.542969 C 97.148438 146.804688 95.210938 145.519531 93.976562 143.445312 C 93.871094 143.265625 93.773438 143.074219 93.675781 142.878906 C 93.582031 142.6875 93.492188 142.484375 93.410156 142.277344 C 93.019531 141.308594 92.773438 140.207031 92.773438 138.941406 C 92.773438 138.136719 92.824219 137.378906 92.902344 136.652344 C 93.292969 133.082031 94.558594 130.484375 95.964844 128.660156 C 96.460938 128.019531 96.972656 127.472656 97.46875 127.011719 Z M 89.671875 132.152344 C 90.398438 129.941406 91.941406 127.960938 93.90625 126.714844 C 93.945312 126.691406 93.980469 126.667969 94.019531 126.648438 C 94.289062 126.480469 94.5625 126.328125 94.835938 126.199219 C 95.15625 126.300781 95.972656 126.597656 96.316406 127.035156 C 96.011719 127.351562 95.707031 127.699219 95.410156 128.078125 C 93.886719 130.019531 92.507812 132.796875 92.101562 136.644531 C 92.027344 137.375 91.976562 138.132812 91.976562 138.941406 C 91.976562 139.558594 92.039062 140.4375 92.304688 141.441406 C 91.535156 140.742188 90.84375 139.859375 90.324219 138.863281 C 89.757812 137.773438 89.414062 136.632812 89.308594 135.492188 C 89.199219 134.359375 89.316406 133.226562 89.671875 132.152344 Z M 105.609375 8.808594 C 105.492188 7.542969 105.875 6.308594 106.6875 5.332031 C 107.503906 4.355469 108.648438 3.753906 109.914062 3.636719 C 110.0625 3.625 110.207031 3.617188 110.355469 3.617188 C 111.390625 3.617188 112.390625 3.957031 113.21875 4.585938 C 109.398438 7.003906 107.425781 9.242188 106.484375 11.144531 C 105.992188 10.464844 105.6875 9.667969 105.609375 8.808594 Z M 29.980469 24 C 36.800781 13.457031 47.324219 6.199219 59.605469 3.566406 C 62.914062 2.859375 66.246094 2.507812 69.550781 2.507812 C 78.515625 2.507812 87.296875 5.082031 95 10.066406 C 95.191406 10.1875 95.371094 10.320312 95.558594 10.445312 C 85.390625 12.046875 84.773438 20.542969 84.765625 20.632812 C 84.753906 20.851562 84.921875 21.039062 85.140625 21.050781 C 85.148438 21.050781 85.15625 21.054688 85.164062 21.054688 C 85.375 21.054688 85.550781 20.890625 85.5625 20.675781 C 85.566406 20.59375 86.164062 12.339844 96.398438 11.128906 C 96.4375 11.125 96.472656 11.109375 96.507812 11.09375 C 97.929688 12.09375 99.292969 13.152344 100.582031 14.285156 C 99.414062 14.488281 98.199219 14.824219 96.949219 15.335938 C 90.90625 17.808594 86.960938 22.296875 85.175781 25.84375 C 83.707031 25.746094 82.011719 25.742188 80.289062 25.992188 C 78.171875 26.292969 76.480469 27.050781 75.21875 27.839844 C 74.65625 27.347656 74 26.957031 73.269531 26.703125 C 69.882812 25.53125 62.925781 24.011719 54.382812 26.960938 C 46.902344 29.546875 43.273438 34.898438 41.195312 38.703125 C 41.089844 38.894531 40.996094 39.097656 40.914062 39.300781 L 23.300781 40.488281 C 24.441406 34.695312 26.675781 29.109375 29.980469 24 Z M 99.929688 47.03125 C 99.816406 47.257812 99.539062 47.34375 99.316406 47.226562 C 99.09375 47.113281 99.003906 46.835938 99.121094 46.613281 C 99.238281 46.386719 99.511719 46.300781 99.738281 46.417969 C 99.960938 46.535156 100.046875 46.808594 99.929688 47.03125 Z M 76.957031 30.511719 C 77.898438 29.933594 79.160156 29.371094 80.738281 29.144531 C 81.996094 28.96875 83.253906 28.941406 84.390625 28.996094 C 84.402344 29.648438 84.503906 30.304688 84.71875 30.929688 C 85.417969 32.996094 86.738281 36.4375 88.691406 39.828125 C 88.660156 39.949219 88.6875 40.074219 88.765625 40.171875 C 88.78125 40.191406 88.792969 40.214844 88.808594 40.230469 C 88.886719 40.296875 88.972656 40.375 89.054688 40.445312 C 89.378906 40.734375 89.734375 41.054688 90.117188 41.40625 C 90.5625 41.816406 91.042969 42.269531 91.546875 42.746094 C 92.859375 44.007812 94.320312 45.472656 95.738281 47.007812 C 96.085938 47.382812 96.429688 47.765625 96.769531 48.152344 C 97.007812 48.417969 97.242188 48.6875 97.472656 48.957031 C 100.699219 52.730469 103.148438 56.53125 102.003906 58.316406 C 101.480469 59.136719 100.71875 59.609375 99.679688 59.753906 C 93.289062 60.664062 79.671875 49.015625 78.691406 48.167969 C 78.660156 48.140625 78.640625 48.125 78.636719 48.121094 C 78.566406 48.058594 78.480469 48.03125 78.390625 48.027344 C 78.523438 47.398438 78.636719 46.753906 78.71875 46.085938 C 79.464844 39.953125 77.945312 33.722656 76.957031 30.511719 Z M 98.09375 45.839844 C 98.023438 45.96875 97.886719 46.042969 97.746094 46.042969 C 97.679688 46.042969 97.613281 46.027344 97.550781 45.992188 C 92.542969 43.210938 89.535156 32.621094 88.761719 29.582031 C 88.648438 29.136719 88.582031 28.851562 88.566406 28.777344 C 88.515625 28.5625 88.652344 28.351562 88.867188 28.300781 C 89.007812 28.269531 89.148438 28.324219 89.242188 28.421875 C 89.289062 28.472656 89.328125 28.53125 89.34375 28.601562 C 89.375 28.738281 92.507812 42.28125 97.941406 45.296875 C 98.132812 45.402344 98.203125 45.644531 98.09375 45.839844 Z M 56.753906 57.898438 C 56.636719 58.121094 56.363281 58.210938 56.136719 58.09375 C 55.914062 57.976562 55.828125 57.703125 55.941406 57.476562 C 56.058594 57.253906 56.335938 57.167969 56.558594 57.28125 C 56.78125 57.398438 56.871094 57.675781 56.753906 57.898438 Z M 54.917969 56.703125 C 54.84375 56.835938 54.707031 56.910156 54.566406 56.910156 C 54.503906 56.910156 54.4375 56.894531 54.375 56.859375 C 49.59375 54.203125 46.636719 44.441406 45.703125 40.910156 C 45.550781 40.335938 45.453125 39.921875 45.410156 39.738281 C 45.398438 39.691406 45.390625 39.660156 45.386719 39.644531 C 45.339844 39.429688 45.472656 39.214844 45.6875 39.167969 C 45.898438 39.117188 46.117188 39.253906 46.164062 39.46875 C 46.195312 39.601562 49.332031 53.144531 54.761719 56.164062 C 54.953125 56.269531 55.023438 56.511719 54.917969 56.703125 Z M 92.011719 101.121094 C 91.851562 102.007812 91.609375 102.875 91.296875 103.722656 C 90.804688 104.773438 90.210938 105.769531 89.535156 106.710938 C 88.539062 107.929688 87.414062 109.035156 86.195312 110.03125 C 85.273438 110.710938 84.3125 111.332031 83.3125 111.894531 C 82.105469 109.699219 81.003906 107.449219 80.007812 105.144531 C 78.882812 102.398438 77.90625 99.597656 77.078125 96.75 C 77.878906 96.621094 78.679688 96.472656 79.480469 96.300781 C 82.96875 95.554688 86.28125 94.4375 89.398438 93.007812 C 89.425781 93.042969 89.453125 93.074219 89.480469 93.105469 C 90.179688 94.078125 90.796875 95.105469 91.308594 96.191406 C 91.617188 97.023438 91.851562 97.871094 92.011719 98.742188 C 92.078125 99.535156 92.078125 100.328125 92.011719 101.121094 Z M 116.109375 55.425781 C 115.75 58.273438 115.128906 61.0625 114.269531 63.761719 C 111.246094 73.230469 105.273438 81.585938 97.207031 87.5 C 94.628906 89.390625 91.839844 91.03125 88.863281 92.378906 C 85.859375 93.738281 82.664062 94.800781 79.3125 95.519531 C 78.492188 95.695312 77.675781 95.847656 76.855469 95.980469 C 73.597656 96.5 70.332031 96.671875 67.097656 96.515625 C 58.925781 96.117188 50.96875 93.585938 43.914062 89.023438 C 37.660156 84.976562 32.570312 79.617188 28.910156 73.371094 C 30.472656 73.375 32.035156 73.480469 33.585938 73.667969 C 34.046875 73.738281 34.503906 73.8125 34.960938 73.898438 C 36.488281 74.179688 37.910156 72.96875 37.792969 71.421875 C 37.582031 68.695312 36.597656 65.410156 34.71875 64.640625 C 34.289062 64.464844 33.996094 64.175781 33.597656 64.105469 C 30.683594 63.75 27.664062 63.671875 24.722656 64.027344 C 24.234375 62.515625 23.820312 60.972656 23.480469 59.398438 C 22.359375 54.164062 22.144531 48.878906 22.785156 43.71875 L 40.660156 42.511719 C 40.722656 42.800781 40.804688 43.089844 40.917969 43.371094 C 43.984375 50.988281 50.359375 62.445312 60.953125 62.445312 C 62.78125 62.445312 64.738281 62.101562 66.820312 61.339844 C 72.917969 59.113281 76.742188 54.910156 78.226562 48.820312 C 79.625 50.03125 92.023438 60.601562 98.953125 60.601562 C 99.242188 60.601562 99.523438 60.582031 99.789062 60.542969 C 101.054688 60.363281 102.027344 59.761719 102.675781 58.75 C 102.984375 58.265625 103.105469 57.675781 103.054688 56.984375 C 102.984375 56.089844 102.613281 55.019531 101.9375 53.777344 C 101.257812 52.535156 100.277344 51.121094 98.996094 49.539062 C 100.019531 49.851562 101.066406 50.019531 102.128906 50.019531 C 103.761719 50.019531 105.4375 49.648438 107.140625 48.910156 C 111.078125 47.207031 113.929688 44.515625 115.675781 40.886719 C 116.597656 45.804688 116.710938 50.695312 116.109375 55.425781 Z M 127.296875 51.75 C 125.066406 54.511719 122.695312 55.921875 120.046875 56.058594 C 118.988281 56.117188 117.917969 55.953125 116.882812 55.664062 C 117.5625 50.453125 117.386719 45.039062 116.234375 39.613281 C 116.808594 38.125 117.222656 36.5 117.464844 34.730469 C 117.480469 34.625 117.492188 34.515625 117.503906 34.40625 C 117.78125 35.453125 118.234375 36.285156 118.691406 36.820312 C 119.960938 38.316406 122.546875 39.1875 125.523438 39.1875 C 126.804688 39.1875 128.160156 39.015625 129.511719 38.667969 C 130.667969 44.097656 129.933594 48.484375 127.296875 51.75 Z M 136.878906 33.308594 C 136.007812 34.265625 134.980469 35.164062 133.792969 35.945312 C 132.371094 36.882812 130.847656 37.511719 129.335938 37.898438 C 125.011719 39.003906 120.792969 38.0625 119.296875 36.304688 C 118.503906 35.375 117.726562 33.402344 118.136719 30.90625 C 118.175781 30.660156 118.234375 30.394531 118.304688 30.125 C 118.5625 30.273438 118.835938 30.40625 119.128906 30.527344 C 119.371094 30.816406 120.289062 31.808594 121.800781 32.453125 C 122.527344 32.761719 123.449219 33.011719 124.546875 33.011719 C 125.433594 33.011719 126.4375 32.84375 127.53125 32.410156 C 128.09375 32.191406 128.675781 31.90625 129.285156 31.535156 C 129.472656 31.417969 129.53125 31.171875 129.417969 30.984375 C 129.304688 30.796875 129.058594 30.738281 128.871094 30.855469 C 128.296875 31.207031 127.75 31.472656 127.226562 31.679688 C 124.128906 32.898438 121.882812 31.8125 120.679688 30.894531 C 120.792969 30.902344 120.90625 30.910156 121.019531 30.910156 C 122.746094 30.910156 124.425781 30.019531 125.894531 28.835938 C 128.675781 26.59375 130.703125 23.296875 130.882812 22.996094 C 130.886719 22.992188 130.890625 22.988281 130.890625 22.984375 C 131.003906 22.796875 130.941406 22.550781 130.753906 22.4375 C 130.566406 22.324219 130.320312 22.382812 130.207031 22.574219 C 130.175781 22.628906 128.1875 25.890625 125.515625 28.105469 C 123.699219 29.609375 121.566406 30.632812 119.519531 29.832031 C 119.167969 29.691406 118.847656 29.523438 118.550781 29.335938 C 118.433594 29.265625 118.320312 29.1875 118.210938 29.105469 C 118.097656 29.023438 117.984375 28.941406 117.878906 28.851562 C 117.796875 28.785156 117.71875 28.714844 117.644531 28.644531 C 117.515625 26.628906 117.226562 24.707031 116.882812 22.984375 C 117.679688 21.828125 118.699219 20.523438 119.628906 19.816406 C 119.804688 19.683594 119.839844 19.433594 119.707031 19.257812 C 119.574219 19.082031 119.324219 19.046875 119.148438 19.179688 C 118.300781 19.824219 117.414062 20.890625 116.65625 21.921875 C 116.519531 21.300781 116.375 20.710938 116.230469 20.164062 C 115.78125 18.429688 114.613281 17.03125 113.113281 16.414062 L 112.632812 16.21875 C 112.589844 16.199219 112.546875 16.179688 112.5 16.164062 C 113.230469 15.164062 114.078125 14.136719 114.863281 13.539062 C 115.039062 13.40625 115.070312 13.15625 114.9375 12.980469 C 114.804688 12.804688 114.558594 12.769531 114.378906 12.90625 C 113.476562 13.589844 112.527344 14.753906 111.738281 15.851562 C 110.351562 15.292969 108.582031 14.652344 106.519531 14.300781 C 106.507812 13.800781 106.566406 13.234375 106.753906 12.609375 C 106.792969 12.472656 106.835938 12.335938 106.890625 12.195312 C 106.9375 12.066406 106.992188 11.933594 107.050781 11.800781 C 107.867188 9.941406 109.785156 7.667969 113.832031 5.144531 C 113.945312 5.074219 114.0625 5.003906 114.179688 4.933594 C 114.292969 4.863281 114.40625 4.792969 114.523438 4.722656 C 114.546875 4.707031 114.570312 4.695312 114.59375 4.679688 C 119.695312 1.65625 124.148438 1.53125 127.824219 4.3125 C 132.328125 7.722656 134.554688 14.550781 135.074219 19.933594 C 135.089844 20.070312 135.101562 20.203125 135.113281 20.335938 C 135.125 20.476562 135.132812 20.617188 135.144531 20.753906 C 135.269531 22.683594 135.171875 24.378906 134.867188 25.597656 C 134.859375 25.640625 134.851562 25.6875 134.839844 25.726562 C 134.78125 25.941406 134.910156 26.15625 135.121094 26.214844 C 135.335938 26.273438 135.554688 26.144531 135.609375 25.933594 C 135.800781 25.207031 135.921875 24.363281 135.976562 23.441406 C 136.351562 22.847656 136.976562 22.015625 137.617188 21.777344 C 138.203125 22.175781 138.703125 22.667969 139.085938 23.25 C 140.890625 25.992188 139.867188 30.023438 136.878906 33.308594 Z M 104.316406 63.410156 C 104.195312 63.683594 101.25 70.191406 89.496094 73.644531 C 87.332031 74.277344 85.070312 74.535156 82.839844 74.535156 C 76.097656 74.535156 69.582031 72.191406 66.429688 70.859375 C 65.503906 70.859375 64.671875 71.28125 64.097656 71.671875 C 63.515625 72.78125 62.765625 73.746094 62.007812 74.542969 C 61.929688 74.625 61.824219 74.664062 61.722656 74.664062 C 61.621094 74.664062 61.523438 74.628906 61.445312 74.554688 C 61.285156 74.402344 61.28125 74.152344 61.433594 73.992188 C 64.40625 70.871094 65.128906 67.53125 63.585938 64.066406 C 63.472656 63.804688 63.417969 63.6875 63.46875 63.519531 C 63.53125 63.308594 63.757812 63.191406 63.964844 63.253906 C 64.117188 63.300781 64.222656 63.433594 64.242188 63.578125 C 64.257812 63.617188 64.285156 63.671875 64.316406 63.742188 C 65.230469 65.796875 65.332031 67.675781 64.96875 69.328125 C 66.394531 70.027344 78.921875 75.917969 89.273438 72.878906 C 95.214844 71.132812 98.792969 68.5625 100.746094 66.714844 C 102.859375 64.714844 103.578125 63.109375 103.585938 63.089844 C 103.675781 62.890625 103.910156 62.796875 104.113281 62.886719 C 104.3125 62.976562 104.40625 63.207031 104.316406 63.410156 Z M 53.625 19.820312 C 53.582031 19.601562 53.722656 19.390625 53.9375 19.347656 C 66.417969 16.800781 70.375 22.464844 70.539062 22.710938 C 70.660156 22.890625 70.613281 23.140625 70.429688 23.261719 C 70.363281 23.308594 70.285156 23.328125 70.207031 23.328125 C 70.082031 23.328125 69.953125 23.269531 69.878906 23.152344 C 69.859375 23.125 68.910156 21.769531 66.527344 20.726562 C 64.300781 19.753906 60.339844 18.855469 54.097656 20.128906 C 53.882812 20.171875 53.671875 20.035156 53.625 19.820312 Z M 53.625 19.820312 " fill-opacity="1" fill-rule="nonzero"/></g><path fill="#ffffff" d="M 139.085938 23.25 C 140.890625 25.992188 139.867188 30.023438 136.878906 33.308594 C 136.007812 34.265625 134.980469 35.164062 133.792969 35.945312 C 132.371094 36.882812 130.847656 37.511719 129.335938 37.898438 C 125.011719 39.003906 120.792969 38.0625 119.296875 36.304688 C 118.503906 35.375 117.726562 33.402344 118.136719 30.90625 C 118.175781 30.660156 118.234375 30.394531 118.304688 30.125 C 118.5625 30.273438 118.835938 30.40625 119.128906 30.527344 C 119.371094 30.816406 120.289062 31.808594 121.800781 32.453125 C 122.527344 32.761719 123.449219 33.011719 124.546875 33.011719 C 125.433594 33.011719 126.4375 32.84375 127.53125 32.410156 C 128.09375 32.191406 128.675781 31.90625 129.285156 31.535156 C 129.472656 31.417969 129.53125 31.171875 129.417969 30.984375 C 129.304688 30.796875 129.058594 30.738281 128.871094 30.855469 C 128.296875 31.207031 127.75 31.472656 127.226562 31.679688 C 124.128906 32.898438 121.882812 31.8125 120.679688 30.894531 C 120.792969 30.902344 120.90625 30.910156 121.019531 30.910156 C 122.746094 30.910156 124.425781 30.019531 125.894531 28.835938 C 128.675781 26.59375 130.703125 23.296875 130.882812 22.996094 C 130.886719 22.992188 130.890625 22.988281 130.890625 22.984375 C 131.003906 22.796875 130.941406 22.550781 130.753906 22.4375 C 130.566406 22.324219 130.320312 22.382812 130.207031 22.574219 C 130.175781 22.628906 128.1875 25.890625 125.515625 28.105469 C 123.699219 29.609375 121.566406 30.632812 119.519531 29.832031 C 119.167969 29.691406 118.847656 29.523438 118.550781 29.335938 C 118.433594 29.265625 118.320312 29.1875 118.210938 29.105469 C 118.097656 29.023438 117.984375 28.941406 117.878906 28.851562 C 117.796875 28.785156 117.71875 28.714844 117.644531 28.644531 C 117.515625 26.628906 117.226562 24.707031 116.882812 22.984375 C 117.679688 21.828125 118.699219 20.523438 119.628906 19.816406 C 119.804688 19.683594 119.839844 19.433594 119.707031 19.257812 C 119.574219 19.082031 119.324219 19.046875 119.148438 19.179688 C 118.300781 19.824219 117.414062 20.890625 116.65625 21.921875 C 116.519531 21.300781 116.375 20.710938 116.230469 20.164062 C 115.78125 18.429688 114.613281 17.03125 113.113281 16.414062 L 112.632812 16.21875 C 112.589844 16.199219 112.546875 16.179688 112.5 16.164062 C 113.230469 15.164062 114.078125 14.136719 114.863281 13.539062 C 115.039062 13.40625 115.070312 13.15625 114.9375 12.980469 C 114.804688 12.804688 114.558594 12.769531 114.378906 12.90625 C 113.476562 13.589844 112.527344 14.753906 111.738281 15.851562 C 110.351562 15.292969 108.582031 14.652344 106.519531 14.300781 C 106.507812 13.800781 106.566406 13.234375 106.753906 12.609375 C 106.792969 12.472656 106.835938 12.335938 106.890625 12.195312 C 106.9375 12.066406 106.992188 11.933594 107.050781 11.800781 C 107.867188 9.941406 109.785156 7.667969 113.832031 5.144531 C 113.945312 5.074219 114.0625 5.003906 114.179688 4.933594 C 114.292969 4.863281 114.40625 4.792969 114.523438 4.722656 C 114.546875 4.707031 114.570312 4.695312 114.59375 4.679688 C 119.695312 1.65625 124.148438 1.53125 127.824219 4.3125 C 132.328125 7.722656 134.554688 14.550781 135.074219 19.933594 C 135.089844 20.070312 135.101562 20.203125 135.113281 20.335938 C 135.125 20.476562 135.132812 20.617188 135.144531 20.753906 C 135.269531 22.683594 135.171875 24.378906 134.867188 25.597656 C 134.859375 25.640625 134.851562 25.6875 134.839844 25.726562 C 134.78125 25.941406 134.910156 26.15625 135.121094 26.214844 C 135.335938 26.273438 135.554688 26.144531 135.609375 25.933594 C 135.800781 25.207031 135.921875 24.363281 135.976562 23.441406 C 136.351562 22.847656 136.976562 22.015625 137.617188 21.777344 C 138.203125 22.175781 138.703125 22.667969 139.085938 23.25 Z M 106.484375 11.144531 C 107.425781 9.242188 109.398438 7.003906 113.21875 4.585938 C 112.390625 3.957031 111.390625 3.617188 110.355469 3.617188 C 110.207031 3.617188 110.0625 3.625 109.914062 3.636719 C 108.648438 3.753906 107.503906 4.355469 106.6875 5.332031 C 105.875 6.308594 105.492188 7.542969 105.609375 8.808594 C 105.6875 9.667969 105.992188 10.464844 106.484375 11.144531 Z M 68.894531 144.15625 C 68.414062 144.15625 67.921875 144.152344 67.421875 144.148438 C 66.90625 144.144531 66.378906 144.140625 65.84375 144.140625 C 60.386719 144.140625 55.300781 142.285156 52.890625 139.414062 C 51.652344 137.945312 51.160156 136.246094 51.464844 134.503906 C 51.933594 131.804688 51.234375 128.660156 50.617188 125.886719 C 50.347656 124.679688 50.089844 123.507812 49.929688 122.425781 L 49.203125 122.398438 C 48.996094 124.316406 49.152344 126.394531 49.898438 128.515625 C 50.585938 130.464844 50.464844 132.414062 50.351562 134.300781 C 50.242188 136.066406 50.140625 137.734375 50.710938 139.25 C 53.082031 145.578125 62.191406 146.523438 67.40625 146.523438 C 72.058594 146.523438 75.140625 146.136719 77.125 144.152344 C 77.8125 143.460938 78.113281 142.519531 78.222656 141.609375 C 78.121094 141.726562 78.027344 141.847656 77.917969 141.953125 C 75.910156 143.949219 72.679688 144.15625 68.894531 144.15625 Z M 65.113281 128.375 C 65.292969 128.289062 65.550781 128.183594 65.863281 128.070312 C 66.203125 127.945312 66.605469 127.808594 67.046875 127.664062 C 67.183594 127.617188 67.324219 127.574219 67.46875 127.527344 C 67.605469 127.484375 67.75 127.4375 67.890625 127.394531 C 68.03125 127.351562 68.171875 127.308594 68.316406 127.261719 C 68.988281 127.054688 69.691406 126.847656 70.355469 126.652344 L 70.378906 126.644531 L 70.546875 126.59375 L 70.601562 126.578125 C 71.109375 126.058594 71.546875 125.457031 71.921875 124.804688 C 71.992188 124.675781 72.066406 124.550781 72.132812 124.417969 C 72.109375 124.417969 72.085938 124.417969 72.0625 124.417969 C 71.925781 124.417969 71.785156 124.414062 71.644531 124.410156 C 71.503906 124.410156 71.363281 124.398438 71.222656 124.394531 C 69.898438 124.351562 68.570312 124.230469 67.242188 124.023438 C 67.445312 124.132812 67.582031 124.191406 67.609375 124.203125 C 67.8125 124.289062 67.910156 124.519531 67.824219 124.722656 C 67.761719 124.875 67.613281 124.96875 67.457031 124.96875 C 67.40625 124.96875 67.355469 124.960938 67.304688 124.9375 C 67.261719 124.921875 63.132812 123.164062 63.230469 118.945312 C 63.363281 113.296875 67.183594 112.761719 67.222656 112.753906 C 67.445312 112.726562 67.640625 112.882812 67.667969 113.101562 C 67.695312 113.320312 67.539062 113.519531 67.324219 113.546875 C 67.222656 113.558594 65.351562 113.855469 64.472656 116.316406 C 64.84375 115.875 65.28125 115.496094 65.730469 115.230469 C 66.890625 114.554688 68.0625 114.535156 69.332031 114.738281 C 69.640625 114.773438 69.949219 114.800781 70.257812 114.824219 C 70.421875 114.835938 70.589844 114.851562 70.753906 114.863281 C 70.914062 114.871094 71.070312 114.867188 71.226562 114.875 C 71.652344 114.890625 72.078125 114.902344 72.503906 114.894531 C 71.316406 111.984375 68.988281 109.996094 66.308594 109.996094 C 66.136719 109.996094 65.96875 110.015625 65.800781 110.03125 C 65.546875 110.054688 65.296875 110.09375 65.054688 110.152344 C 64.832031 110.207031 64.613281 110.273438 64.402344 110.355469 C 61.796875 111.328125 59.8125 114.226562 59.378906 117.808594 C 59.359375 117.980469 59.335938 118.148438 59.320312 118.324219 C 59.308594 118.507812 59.304688 118.695312 59.300781 118.882812 C 59.296875 119.007812 59.285156 119.132812 59.285156 119.261719 C 59.285156 123.730469 61.78125 127.617188 65.113281 128.375 Z M 94.835938 126.199219 C 94.5625 126.328125 94.289062 126.480469 94.019531 126.648438 C 93.980469 126.667969 93.945312 126.691406 93.90625 126.714844 C 91.941406 127.960938 90.398438 129.941406 89.671875 132.152344 C 89.316406 133.226562 89.199219 134.359375 89.308594 135.492188 C 89.414062 136.632812 89.757812 137.773438 90.324219 138.863281 C 90.84375 139.859375 91.535156 140.742188 92.304688 141.441406 C 92.039062 140.4375 91.976562 139.558594 91.976562 138.941406 C 91.976562 138.132812 92.027344 137.375 92.101562 136.644531 C 92.507812 132.796875 93.886719 130.019531 95.410156 128.078125 C 95.707031 127.699219 96.011719 127.351562 96.316406 127.035156 C 95.972656 126.597656 95.15625 126.300781 94.835938 126.199219 Z M 105.109375 134.179688 C 105.472656 133.484375 105.832031 132.808594 106.164062 132.15625 C 107.523438 129.511719 107.476562 127.546875 107.429688 125.464844 C 107.378906 123.457031 107.328125 121.382812 108.402344 118.496094 C 109.324219 116.011719 111.261719 114.253906 113.726562 113.671875 C 114.929688 113.386719 116.148438 113.4375 117.273438 113.769531 C 117.277344 113.769531 117.285156 113.773438 117.289062 113.773438 C 117.277344 113.769531 117.269531 113.761719 117.261719 113.757812 C 116.027344 112.972656 114.453125 112.707031 112.796875 113.035156 C 110.324219 113.527344 108.136719 115.265625 107.09375 117.570312 C 105.519531 121.042969 105.566406 123.601562 105.609375 125.855469 C 105.652344 128.058594 105.691406 130.140625 104.167969 132.503906 C 103.421875 133.660156 102.789062 134.742188 102.242188 135.753906 C 101.160156 137.761719 100.441406 139.496094 99.972656 140.972656 C 98.644531 145.171875 99.359375 147.292969 99.5625 147.761719 C 99.886719 147.90625 100.367188 148.109375 100.894531 148.3125 C 100.882812 148.289062 100.863281 148.273438 100.851562 148.25 C 99.175781 145.476562 102.328125 139.472656 105.109375 134.179688 Z M 119.625 116.148438 C 119.582031 116.09375 119.53125 116.046875 119.484375 115.996094 C 119.429688 115.9375 119.375 115.871094 119.316406 115.816406 C 119.203125 115.710938 119.082031 115.609375 118.960938 115.515625 C 118.898438 115.464844 118.835938 115.421875 118.773438 115.375 C 118.613281 115.261719 118.445312 115.152344 118.273438 115.054688 C 117.394531 114.550781 116.386719 114.277344 115.347656 114.277344 C 114.871094 114.277344 114.386719 114.335938 113.910156 114.449219 C 111.710938 114.964844 109.976562 116.542969 109.148438 118.773438 C 108.128906 121.515625 108.179688 123.515625 108.222656 125.445312 C 108.277344 127.632812 108.328125 129.695312 106.875 132.519531 C 106.539062 133.171875 106.179688 133.855469 105.816406 134.550781 C 103.265625 139.40625 100.089844 145.449219 101.53125 147.839844 C 101.980469 148.582031 102.875 148.945312 104.261719 148.945312 L 104.410156 148.945312 C 104.664062 148.945312 104.898438 148.941406 105.128906 148.9375 C 105.699219 148.925781 106.199219 148.898438 106.636719 148.859375 C 106.9375 148.828125 107.210938 148.792969 107.453125 148.753906 C 107.546875 148.742188 107.636719 148.726562 107.722656 148.707031 C 108.773438 148.511719 109.304688 148.21875 109.570312 147.953125 C 109.855469 147.667969 110.175781 147.292969 110.519531 146.816406 C 110.71875 146.535156 110.929688 146.222656 111.148438 145.867188 C 112.390625 143.839844 113.882812 140.480469 115.441406 134.910156 C 116.054688 132.710938 117.378906 130.207031 118.550781 127.996094 C 119.257812 126.65625 119.925781 125.390625 120.308594 124.429688 C 121.238281 122.074219 121.144531 119.085938 120.230469 117.140625 C 120.058594 116.769531 119.859375 116.433594 119.625 116.148438 Z M 76.289062 135.703125 C 76.28125 135.894531 76.265625 136.078125 76.242188 136.234375 C 76.214844 136.433594 76.183594 136.597656 76.15625 136.722656 C 76.125 136.867188 76.097656 136.964844 76.09375 136.984375 C 76.027344 137.195312 76.148438 137.417969 76.359375 137.480469 C 76.398438 137.492188 76.4375 137.5 76.472656 137.5 C 76.585938 137.5 76.691406 137.449219 76.765625 137.367188 C 76.804688 137.324219 76.835938 137.277344 76.855469 137.21875 C 76.855469 137.210938 76.882812 137.113281 76.921875 136.949219 C 76.945312 136.824219 76.976562 136.660156 77.003906 136.460938 C 77.207031 135.027344 77.226562 131.886719 74.148438 129.816406 C 73.964844 129.691406 73.71875 129.742188 73.597656 129.921875 C 73.472656 130.105469 73.519531 130.351562 73.703125 130.476562 C 76.058594 132.058594 76.367188 134.304688 76.289062 135.703125 Z M 74.636719 140.21875 C 74.636719 140.46875 74.839844 140.675781 75.089844 140.675781 C 75.34375 140.675781 75.546875 140.46875 75.546875 140.21875 C 75.546875 139.964844 75.34375 139.761719 75.089844 139.761719 C 74.839844 139.761719 74.636719 139.964844 74.636719 140.21875 Z M 48.875 108.867188 C 48.078125 108.0625 47.460938 107.152344 47.039062 106.152344 C 46.402344 104.628906 43.117188 97.773438 35.546875 96.566406 C 34.910156 96.785156 33.929688 97.363281 33.257812 97.820312 C 32.582031 99.808594 31.027344 102.226562 27.722656 104.777344 C 27.550781 104.914062 27.300781 104.882812 27.164062 104.707031 C 27.144531 104.679688 27.132812 104.648438 27.121094 104.617188 C 27.050781 104.453125 27.089844 104.261719 27.238281 104.148438 C 31.101562 101.160156 32.441406 98.414062 32.808594 96.390625 C 32.832031 96.253906 32.851562 96.121094 32.871094 95.988281 C 32.886719 95.851562 32.898438 95.71875 32.910156 95.589844 C 32.914062 95.519531 32.921875 95.441406 32.921875 95.371094 C 32.996094 93.453125 32.246094 92.074219 31.582031 91.480469 C 30.269531 90.296875 27.238281 90.300781 24.039062 91.558594 C 24.574219 92.078125 25.121094 92.585938 25.6875 93.078125 C 26.640625 93.902344 27.035156 95.246094 27.089844 96.457031 C 27.144531 97.730469 26.523438 98.929688 25.6875 99.839844 C 24.882812 100.71875 23.480469 101.238281 22.308594 101.238281 C 20.988281 101.238281 19.898438 100.679688 18.925781 99.839844 C 18.066406 99.097656 17.226562 98.308594 16.414062 97.488281 C 14.1875 100.558594 13.535156 103.789062 15.074219 105.636719 C 16.148438 106.929688 18.191406 107.324219 20.617188 106.769531 C 21.160156 106.644531 21.722656 106.476562 22.296875 106.253906 C 22.496094 106.175781 22.71875 106.273438 22.800781 106.46875 C 22.804688 106.476562 22.808594 106.480469 22.808594 106.484375 C 22.890625 106.6875 22.785156 106.917969 22.582031 107 C 21.691406 107.339844 20.835938 107.5625 20.023438 107.691406 C 20.042969 108.144531 20.75 124.515625 26.753906 126.496094 C 28.976562 127.230469 30.746094 127.246094 32.011719 126.535156 C 32.910156 126.03125 33.324219 125.269531 33.492188 124.851562 C 32.554688 124.378906 29.773438 122.769531 29.632812 120.167969 C 29.621094 119.949219 29.789062 119.761719 30.007812 119.75 C 30.226562 119.730469 30.417969 119.90625 30.429688 120.125 C 30.558594 122.5625 33.714844 124.082031 34.078125 124.25 C 34.089844 124.25 34.097656 124.25 34.109375 124.253906 C 34.300781 124.3125 38.683594 125.621094 40.894531 121.851562 C 39.773438 121.523438 37.152344 120.53125 36.425781 118.238281 C 36.359375 118.03125 36.476562 117.804688 36.6875 117.738281 C 36.894531 117.671875 37.121094 117.789062 37.1875 118 C 37.921875 120.324219 41.230469 121.128906 41.535156 121.199219 C 41.871094 121.203125 44.535156 121.144531 46.386719 119.246094 C 47.644531 117.960938 48.269531 116.09375 48.257812 113.710938 C 47.070312 114.523438 45.976562 114.9375 44.984375 114.960938 C 45.675781 115.640625 46.539062 116.699219 46.734375 117.914062 C 46.769531 118.132812 46.621094 118.335938 46.40625 118.371094 C 46.382812 118.375 46.363281 118.378906 46.339844 118.378906 C 46.148438 118.378906 45.980469 118.238281 45.949219 118.042969 C 45.667969 116.316406 43.628906 114.835938 43.605469 114.824219 C 43.542969 114.777344 43.503906 114.714844 43.476562 114.652344 C 41.367188 113.671875 40.652344 110.695312 40.488281 109.820312 L 38.984375 109.261719 C 38.777344 109.1875 38.671875 108.957031 38.75 108.75 C 38.824219 108.542969 39.054688 108.4375 39.261719 108.515625 L 40.980469 109.152344 C 41.117188 109.203125 41.214844 109.324219 41.234375 109.46875 C 41.234375 109.476562 41.257812 109.613281 41.304688 109.832031 C 41.503906 110.773438 42.191406 113.28125 43.921875 113.980469 C 45.058594 114.441406 46.484375 114.039062 48.164062 112.792969 C 48.226562 112.75 48.285156 112.710938 48.347656 112.664062 C 48.359375 112.65625 48.371094 112.652344 48.378906 112.648438 C 48.417969 112.613281 49.519531 111.585938 49.550781 110.402344 C 49.5625 109.84375 49.34375 109.339844 48.875 108.867188 Z M 100.597656 56.476562 C 100.644531 56.476562 100.6875 56.46875 100.734375 56.453125 C 100.941406 56.378906 101.046875 56.148438 100.972656 55.941406 C 100.277344 54.003906 97.359375 50.34375 94.550781 47.101562 C 92.945312 45.242188 91.375 43.523438 90.28125 42.34375 C 89.457031 41.460938 88.90625 40.882812 88.8125 40.78125 C 88.660156 40.625 88.40625 40.617188 88.246094 40.769531 C 88.089844 40.921875 88.082031 41.175781 88.234375 41.335938 C 88.339844 41.445312 98.882812 52.484375 100.222656 56.210938 C 100.28125 56.375 100.433594 56.476562 100.597656 56.476562 Z M 86.773438 39.128906 C 86.550781 39.015625 86.273438 39.101562 86.160156 39.324219 C 86.042969 39.546875 86.128906 39.824219 86.355469 39.941406 C 86.578125 40.058594 86.851562 39.96875 86.96875 39.746094 C 87.085938 39.523438 87 39.246094 86.773438 39.128906 Z M 45.410156 39.738281 C 45.453125 39.921875 45.550781 40.335938 45.703125 40.910156 C 46.636719 44.441406 49.59375 54.203125 54.375 56.859375 C 54.4375 56.894531 54.503906 56.910156 54.566406 56.910156 C 54.707031 56.910156 54.84375 56.835938 54.917969 56.703125 C 55.023438 56.511719 54.953125 56.269531 54.761719 56.164062 C 49.332031 53.144531 46.195312 39.601562 46.164062 39.46875 C 46.117188 39.253906 45.898438 39.117188 45.6875 39.167969 C 45.472656 39.214844 45.339844 39.429688 45.386719 39.644531 C 45.390625 39.660156 45.398438 39.691406 45.410156 39.738281 Z M 56.136719 58.09375 C 56.363281 58.210938 56.636719 58.121094 56.753906 57.898438 C 56.871094 57.675781 56.78125 57.398438 56.558594 57.28125 C 56.335938 57.167969 56.058594 57.253906 55.941406 57.476562 C 55.828125 57.703125 55.914062 57.976562 56.136719 58.09375 Z M 88.761719 29.582031 C 89.535156 32.621094 92.542969 43.210938 97.550781 45.992188 C 97.613281 46.027344 97.679688 46.042969 97.746094 46.042969 C 97.886719 46.042969 98.023438 45.96875 98.09375 45.839844 C 98.203125 45.644531 98.132812 45.402344 97.941406 45.296875 C 92.507812 42.28125 89.375 28.738281 89.34375 28.601562 C 89.328125 28.53125 89.289062 28.472656 89.242188 28.421875 C 89.148438 28.324219 89.007812 28.269531 88.867188 28.300781 C 88.652344 28.351562 88.515625 28.5625 88.566406 28.777344 C 88.582031 28.851562 88.648438 29.136719 88.761719 29.582031 Z M 99.316406 47.226562 C 99.539062 47.34375 99.816406 47.257812 99.929688 47.03125 C 100.046875 46.808594 99.960938 46.535156 99.738281 46.417969 C 99.511719 46.300781 99.238281 46.386719 99.121094 46.613281 C 99.003906 46.835938 99.09375 47.113281 99.316406 47.226562 Z M 99.316406 47.226562 " fill-opacity="1" fill-rule="nonzero"/></svg>